<svg width="100" height="70" viewBox="0 0 100 70" fill="none" xmlns="http://www.w3.org/2000/svg">
<rect width="100" height="70" fill="#F5F5F5"/>
<path d="M62.8333 18.5H37.1667C35.1416 18.5 33.5 20.1416 33.5 22.1667V47.8333C33.5 49.8584 35.1416 51.5 37.1667 51.5H62.8333C64.8584 51.5 66.5 49.8584 66.5 47.8333V22.1667C66.5 20.1416 64.8584 18.5 62.8333 18.5Z" stroke="#D4D4D4" stroke-width="4" stroke-linecap="round" stroke-linejoin="round"/>
<path d="M44.5 33.1667C46.5251 33.1667 48.1667 31.525 48.1667 29.5C48.1667 27.475 46.5251 25.8333 44.5 25.8333C42.475 25.8333 40.8333 27.475 40.8333 29.5C40.8333 31.525 42.475 33.1667 44.5 33.1667Z" stroke="#D4D4D4" stroke-width="4" stroke-linecap="round" stroke-linejoin="round"/>
<path d="M66.5 40.5L60.8423 34.8423C60.1547 34.1549 59.2223 33.7688 58.25 33.7688C57.2777 33.7688 56.3453 34.1549 55.6577 34.8423L39 51.5" stroke="#D4D4D4" stroke-width="4" stroke-linecap="round" stroke-linejoin="round"/>
</svg>
